<mxfile host="app.diagrams.net" agent="Mozilla/5.0 (Macintosh; Intel Mac OS X 10_15_7) AppleWebKit/605.1.15 (KHTML, like Gecko) Version/18.1 Safari/605.1.15" version="26.0.16">
  <diagram id="5XK8QlfNFUtluHXEVsSS" name="Page-1">
    <mxGraphModel dx="838" dy="593" grid="1" gridSize="10" guides="1" tooltips="1" connect="1" arrows="1" fold="1" page="1" pageScale="1" pageWidth="850" pageHeight="1100" math="0" shadow="0">
      <root>
        <mxCell id="0" />
        <mxCell id="1" parent="0" />
        <mxCell id="jA5RhgpC5FkIosOvrkr4-8" style="edgeStyle=orthogonalEdgeStyle;rounded=0;orthogonalLoop=1;jettySize=auto;html=1;exitX=1;exitY=0.5;exitDx=0;exitDy=0;entryX=0;entryY=0.5;entryDx=0;entryDy=0;" edge="1" parent="1" source="jA5RhgpC5FkIosOvrkr4-1" target="jA5RhgpC5FkIosOvrkr4-3">
          <mxGeometry relative="1" as="geometry" />
        </mxCell>
        <mxCell id="jA5RhgpC5FkIosOvrkr4-1" value="User 1" style="rounded=1;whiteSpace=wrap;html=1;" vertex="1" parent="1">
          <mxGeometry x="80" y="80" width="80" height="40" as="geometry" />
        </mxCell>
        <mxCell id="jA5RhgpC5FkIosOvrkr4-2" value="User 2" style="rounded=1;whiteSpace=wrap;html=1;" vertex="1" parent="1">
          <mxGeometry x="80" y="160" width="80" height="40" as="geometry" />
        </mxCell>
        <mxCell id="jA5RhgpC5FkIosOvrkr4-9" style="edgeStyle=orthogonalEdgeStyle;rounded=0;orthogonalLoop=1;jettySize=auto;html=1;exitX=0.5;exitY=0;exitDx=0;exitDy=0;entryX=0.5;entryY=1;entryDx=0;entryDy=0;" edge="1" parent="1" source="jA5RhgpC5FkIosOvrkr4-3" target="jA5RhgpC5FkIosOvrkr4-6">
          <mxGeometry relative="1" as="geometry" />
        </mxCell>
        <mxCell id="jA5RhgpC5FkIosOvrkr4-12" style="edgeStyle=orthogonalEdgeStyle;rounded=0;orthogonalLoop=1;jettySize=auto;html=1;exitX=1;exitY=0.5;exitDx=0;exitDy=0;entryX=0.5;entryY=0;entryDx=0;entryDy=0;" edge="1" parent="1" source="jA5RhgpC5FkIosOvrkr4-3" target="jA5RhgpC5FkIosOvrkr4-5">
          <mxGeometry relative="1" as="geometry" />
        </mxCell>
        <mxCell id="jA5RhgpC5FkIosOvrkr4-3" value="Chat server 1" style="rounded=1;whiteSpace=wrap;html=1;" vertex="1" parent="1">
          <mxGeometry x="240" y="80" width="80" height="40" as="geometry" />
        </mxCell>
        <mxCell id="jA5RhgpC5FkIosOvrkr4-15" style="edgeStyle=orthogonalEdgeStyle;rounded=0;orthogonalLoop=1;jettySize=auto;html=1;exitX=0;exitY=0.5;exitDx=0;exitDy=0;entryX=1;entryY=0.5;entryDx=0;entryDy=0;" edge="1" parent="1" source="jA5RhgpC5FkIosOvrkr4-4" target="jA5RhgpC5FkIosOvrkr4-2">
          <mxGeometry relative="1" as="geometry" />
        </mxCell>
        <mxCell id="jA5RhgpC5FkIosOvrkr4-4" value="Chat server 2" style="rounded=1;whiteSpace=wrap;html=1;" vertex="1" parent="1">
          <mxGeometry x="240" y="160" width="80" height="40" as="geometry" />
        </mxCell>
        <mxCell id="jA5RhgpC5FkIosOvrkr4-13" style="edgeStyle=orthogonalEdgeStyle;rounded=0;orthogonalLoop=1;jettySize=auto;html=1;exitX=1;exitY=0.5;exitDx=0;exitDy=0;entryX=0;entryY=0.5;entryDx=0;entryDy=0;" edge="1" parent="1" source="jA5RhgpC5FkIosOvrkr4-5" target="jA5RhgpC5FkIosOvrkr4-7">
          <mxGeometry relative="1" as="geometry" />
        </mxCell>
        <mxCell id="jA5RhgpC5FkIosOvrkr4-14" style="edgeStyle=orthogonalEdgeStyle;rounded=0;orthogonalLoop=1;jettySize=auto;html=1;exitX=0;exitY=0.5;exitDx=0;exitDy=0;" edge="1" parent="1" source="jA5RhgpC5FkIosOvrkr4-5" target="jA5RhgpC5FkIosOvrkr4-4">
          <mxGeometry relative="1" as="geometry" />
        </mxCell>
        <mxCell id="jA5RhgpC5FkIosOvrkr4-17" style="edgeStyle=orthogonalEdgeStyle;rounded=0;orthogonalLoop=1;jettySize=auto;html=1;exitX=0.5;exitY=1;exitDx=0;exitDy=0;entryX=0.5;entryY=0;entryDx=0;entryDy=0;" edge="1" parent="1" source="jA5RhgpC5FkIosOvrkr4-5" target="jA5RhgpC5FkIosOvrkr4-16">
          <mxGeometry relative="1" as="geometry" />
        </mxCell>
        <mxCell id="jA5RhgpC5FkIosOvrkr4-5" value="Message queue 2" style="rounded=1;whiteSpace=wrap;html=1;" vertex="1" parent="1">
          <mxGeometry x="400" y="160" width="80" height="40" as="geometry" />
        </mxCell>
        <mxCell id="jA5RhgpC5FkIosOvrkr4-11" style="edgeStyle=orthogonalEdgeStyle;rounded=0;orthogonalLoop=1;jettySize=auto;html=1;exitX=0.5;exitY=1;exitDx=0;exitDy=0;" edge="1" parent="1" source="jA5RhgpC5FkIosOvrkr4-6">
          <mxGeometry relative="1" as="geometry">
            <mxPoint x="280" y="80" as="targetPoint" />
          </mxGeometry>
        </mxCell>
        <mxCell id="jA5RhgpC5FkIosOvrkr4-6" value="ID generator" style="rounded=1;whiteSpace=wrap;html=1;" vertex="1" parent="1">
          <mxGeometry x="240" width="80" height="40" as="geometry" />
        </mxCell>
        <mxCell id="jA5RhgpC5FkIosOvrkr4-7" value="Key-value store" style="rounded=1;whiteSpace=wrap;html=1;" vertex="1" parent="1">
          <mxGeometry x="560" y="160" width="80" height="40" as="geometry" />
        </mxCell>
        <mxCell id="jA5RhgpC5FkIosOvrkr4-18" style="edgeStyle=orthogonalEdgeStyle;rounded=0;orthogonalLoop=1;jettySize=auto;html=1;exitX=0;exitY=0.5;exitDx=0;exitDy=0;entryX=0.5;entryY=1;entryDx=0;entryDy=0;" edge="1" parent="1" source="jA5RhgpC5FkIosOvrkr4-16" target="jA5RhgpC5FkIosOvrkr4-4">
          <mxGeometry relative="1" as="geometry" />
        </mxCell>
        <mxCell id="jA5RhgpC5FkIosOvrkr4-16" value="notification servers" style="rounded=1;whiteSpace=wrap;html=1;" vertex="1" parent="1">
          <mxGeometry x="400" y="240" width="80" height="40" as="geometry" />
        </mxCell>
      </root>
    </mxGraphModel>
  </diagram>
</mxfile>
